<svg xmlns="http://www.w3.org/2000/svg" version="1.1" xmlns:xlink="http://www.w3.org/1999/xlink" xmlns:svgjs="http://svgjs.dev/svgjs" width="1000" height="351" viewBox="0 0 1000 351">
    <g transform="matrix(1,0,0,1,-0.6060606060606233,0.49151165603026925)">
        <svg viewBox="0 0 396 139" data-background-color="#ffffff" preserveAspectRatio="xMidYMid meet" height="351" width="1000" xmlns="http://www.w3.org/2000/svg" xmlns:xlink="http://www.w3.org/1999/xlink">
            <g id="tight-bounds" transform="matrix(1,0,0,1,0.2400000000000091,-0.19464387250221193)">
                <svg viewBox="0 0 395.52 139.38928744696508" height="139.38928744696508" width="395.52">
                    <g>
                        <svg viewBox="0 0 666.1271143085003 234.75673496299788" height="139.38928744696508" width="395.52">
                            <g transform="matrix(1,0,0,1,270.6071143085003,61.93911421454188)">
                                <svg viewBox="0 0 395.52 110.87850653391412" height="110.87850653391412" width="395.52">
                                    <g id="textblocktransform">
                                        <svg viewBox="0 0 395.52 110.87850653391412" height="110.87850653391412" width="395.52" id="textblock">
                                            <g>
                                                <svg viewBox="0 0 395.52 110.87850653391412" height="110.87850653391412" width="395.52">
                                                    <g transform="matrix(1,0,0,1,0,0)">
                                                        <svg width="395.52" viewBox="0.9000000357627869 -35.04999923706055 160.69000244140625 45.04999923706055" height="110.87850653391412" data-palette-color="#e4c141">
                                                            <path d="M5.85 0L5.85-1.5 24.25-1.5 13.65-30.65 2.5 0 0.9 0 13.65-35.05 26.4 0 5.85 0ZM47.25-12.4L44.45-10.8 43.7-12.1 46.5-13.7Q49.95-15.6 49.95-19.75L49.95-19.75Q49.95-27.5 38.15-27.5L38.15-27.5 33.55-27.5 33.55 10 32.05 10 32.05-29 38.15-29Q44.75-29 48.1-26.58 51.45-24.15 51.45-19.75L51.45-19.75Q51.45-14.75 47.25-12.4L47.25-12.4ZM58-29L59.5-29 59.5-14.5Q59.5-7.05 61.87-4.03 64.25-1 68.4-1 72.55-1 74.92-4.03 77.3-7.05 77.3-14.5L77.3-14.5 77.3-29 78.8-29 78.8-14.5Q78.8 0.5 68.4 0.5 58 0.5 58-14.5L58-14.5 58-29ZM99.99-14.55L99.99-14.55 106.79 0 105.14 0 98.14-15Q98.24-15.05 99.02-15.43 99.79-15.8 100.09-15.98 100.39-16.15 101.09-16.6 101.79-17.05 102.14-17.48 102.49-17.9 102.92-18.48 103.34-19.05 103.54-19.78 103.74-20.5 103.74-21.35L103.74-21.35Q103.74-24.5 100.74-26 97.74-27.5 93.29-27.5L93.29-27.5 89.29-27.5 89.29 0 87.79 0 87.79-29 93.29-29Q99.19-29 102.22-26.95 105.24-24.9 105.24-21.35L105.24-21.35Q105.24-19.05 103.69-17.28 102.14-15.5 99.99-14.55ZM120.79 0L120.79 0 113.59 0 113.59-29 119.09-29Q124.99-29 128.02-26.95 131.04-24.9 131.04-21.35L131.04-21.35Q131.04-17.1 127.29-15.2L127.29-15.2Q130.04-14.25 131.39-12.38 132.74-10.5 132.74-8.05L132.74-8.05Q132.74-4.45 129.77-2.23 126.79 0 120.79 0ZM115.09-1.5L120.79-1.5Q125.19-1.5 128.22-3.1 131.24-4.7 131.24-8.05L131.24-8.05Q131.24-9.6 130.09-11.43 128.94-13.25 126.54-14.1L126.54-14.1 123.94-15 126.34-16.25Q127.59-16.9 128.56-18.23 129.54-19.55 129.54-21.35L129.54-21.35Q129.54-24.5 126.54-26 123.54-27.5 119.09-27.5L119.09-27.5 115.09-27.5 115.09-1.5ZM143.04 0L143.04-1.5 159.34-1.5 149.09-25.65 138.19 0 136.59 0 149.09-29.5 161.59 0 143.04 0Z" opacity="1" transform="matrix(1,0,0,1,0,0)" fill="#e4c141" class="undefined-text-0" data-fill-palette-color="primary" id="text-0"></path>
                                                        </svg>
                                                    </g>
                                                </svg>
                                            </g>
                                        </svg>
                                    </g>
                                </svg>
                            </g>
                            <g>
                                <svg viewBox="0 0 244.43135999999998 234.75673496299788" height="234.75673496299788" width="244.43135999999998">
                                    <g>
                                        <svg xmlns="http://www.w3.org/2000/svg" xmlns:xlink="http://www.w3.org/1999/xlink" version="1.1" x="0" y="0" viewBox="6.987984657287598 8.153348922729492 86.15674591064453 82.74665069580078" style="enable-background:new 0 0 100 100;" xml:space="preserve" height="234.75673496299788" width="244.43135999999998" class="icon-icon-0" data-fill-palette-color="accent" id="icon-0">
                                            <path d="M59.5 90.9c-2.3 0-4.6-0.4-6.9-1.1L21.2 79C10.9 75.5 5 64.9 7.6 54.3l7.2-30c1.7-6.9 6.7-12.5 13.4-14.9S42.3 8.1 48 12.4l36.9 28.2c4.8 3.7 7.8 9.3 8.2 15.3s-1.9 12-6.2 16.3L74.2 84.8C70.2 88.8 64.9 90.9 59.5 90.9zM35.2 12.1c-1.9 0-3.8 0.3-5.7 1C24.1 15 20 19.5 18.7 25.2l-7.2 30c-2.1 8.6 2.7 17.2 11 20.1L53.9 86c6.2 2.1 12.9 0.6 17.5-4l12.7-12.6c3.5-3.5 5.3-8.3 5-13.2s-2.7-9.4-6.6-12.4L45.5 15.6C42.5 13.3 38.9 12.1 35.2 12.1z" fill="#fbeaab" data-fill-palette-color="accent"></path>
                                        </svg>
                                    </g>
                                </svg>
                            </g>
                        </svg>
                    </g>
                    <defs></defs>
                </svg>
                <rect width="395.52" height="139.38928744696508" fill="none" stroke="none" visibility="hidden"></rect>
            </g>
        </svg>
    </g>
</svg>